<svg width="40" height="40" viewBox="0 0 40 40" fill="none" xmlns="http://www.w3.org/2000/svg">
    <rect x="0.5" y="0.5" width="39" height="39" rx="19.5" fill="#0E1414"/>
    <rect x="0.5" y="0.5" width="39" height="39" rx="19.5" stroke="url(#paint0_linear_180_9003)"/>
    <path d="M27.2826 13.8174C26.7718 13.3066 26.1397 12.9052 25.4421 12.6424C24.7444 12.3795 23.9978 12.2614 23.2499 12.2969C22.16 12.2969 21.0913 12.628 20.1797 13.2499C19.9699 13.3856 19.7701 13.5352 19.5797 13.6969C19.3893 13.5352 19.1895 13.3856 18.9797 13.2499C18.0681 12.628 16.9995 12.2969 15.9095 12.2969C15.1524 12.2614 14.3963 12.3795 13.6895 12.6424C12.9827 12.9052 12.3422 13.3066 11.8269 13.8174C9.36742 16.2768 9.36742 20.1558 11.8269 22.6152L18.5797 29.3681C19.1485 29.9366 20.0611 29.9366 20.6299 29.3681L27.3826 22.6152C29.8421 20.1558 29.8421 16.2768 27.2826 13.8174Z"
          fill="#F5F5F6"/>
    <defs>
        <linearGradient id="paint0_linear_180_9003" x1="20" y1="0" x2="20" y2="40" gradientUnits="userSpaceOnUse">
            <stop stop-color="#414B4E"/>
            <stop offset="1" stop-color="#414B4E" stop-opacity="0"/>
        </linearGradient>
    </defs>
</svg>